<svg xmlns="http://www.w3.org/2000/svg" width="16" height="16" viewBox="0 0 16 16"><defs><style>.a,.d{fill:none;}.a{stroke:#fff;}.b{fill:#fff;fill-rule:evenodd;}.c{stroke:none;}</style></defs><g transform="translate(-235 -767)"><g class="a" transform="translate(235 767)"><circle class="c" cx="8" cy="8" r="8"/><circle class="d" cx="8" cy="8" r="7.5"/></g><g transform="translate(229.536 760.897)"><path class="b" d="M16.465,10.928a.761.761,0,0,1,1.121-.012.879.879,0,0,1,.011,1.191l-4.22,5.6a.762.762,0,0,1-1.142.022l-2.8-2.97a.875.875,0,0,1-.233-.827.819.819,0,0,1,.575-.61.764.764,0,0,1,.779.247l2.214,2.349,3.671-4.966a.26.26,0,0,1,.021-.024Z"/></g></g></svg>