<svg xmlns="http://www.w3.org/2000/svg" width="20.094" height="21.321" viewBox="0 0 20.094 21.321"><defs><style>.a{fill:#0a102e;fill-rule:evenodd;}</style></defs><g transform="translate(0 1.204)"><path class="a" d="M19.1,15.932a.628.628,0,0,1,0,.889L15.33,20.589a.628.628,0,0,1-.889,0L12.557,18.7a.629.629,0,1,1,.889-.889l1.44,1.441,3.323-3.324a.628.628,0,0,1,.889,0Z" transform="translate(-5.467 -6.934)"/><path class="a" d="M1.256,6.018V18.576a1.256,1.256,0,0,0,1.256,1.256h15.07a1.256,1.256,0,0,0,1.256-1.256V6.018ZM2.512,2.25A2.512,2.512,0,0,0,0,4.762V18.576a2.512,2.512,0,0,0,2.512,2.512h15.07a2.512,2.512,0,0,0,2.512-2.512V4.762A2.512,2.512,0,0,0,17.582,2.25Z" transform="translate(0 -0.971)"/><path class="a" d="M7.6.05a1.054,1.054,0,0,1,1,1v1.3c0,.582-.552.806-1,.806s-1.007-.225-1.007-.806v-1.3A1.062,1.062,0,0,1,7.6.05Z" transform="translate(-2.982 -1.254)"/><path class="a" d="M7.6.05a1.054,1.054,0,0,1,1,1v1.3c0,.582-.552.806-1,.806s-1.007-.225-1.007-.806v-1.3A1.062,1.062,0,0,1,7.6.05Z" transform="translate(8.018 -1.254)"/></g></svg>