<svg xmlns="http://www.w3.org/2000/svg" enable-background="new 0 0 24 24" viewBox="0 0 24 24"><path fill="#040404" d="M21.5,21h-19C2.223877,21,2,21.223877,2,21.5S2.223877,22,2.5,22h19c0.276123,0,0.5-0.223877,0.5-0.5S21.776123,21,21.5,21z M4.5,18.0888672h5c0.1326294,0,0.2597656-0.0527344,0.3534546-0.1465454l10-10c0.000061,0,0.0001221-0.000061,0.0001831-0.0001221c0.1951294-0.1952515,0.1950684-0.5117188-0.0001831-0.7068481l-5-5c0-0.000061-0.000061-0.0001221-0.0001221-0.0001221c-0.1951904-0.1951904-0.5117188-0.1951294-0.7068481,0.0001221l-10,10C4.0526733,12.3291016,4,12.4562378,4,12.5888672v5c0,0.0001831,0,0.0003662,0,0.0005493C4.0001831,17.8654175,4.223999,18.0890503,4.5,18.0888672z M14.5,3.2958984l4.2930298,4.2929688l-2.121582,2.121582l-4.2926025-4.293396L14.5,3.2958984z M5,12.7958984l6.671814-6.671814l4.2926025,4.293396l-6.6713867,6.6713867H5V12.7958984z"/></svg>