<svg xmlns="http://www.w3.org/2000/svg" enable-background="new 0 0 24 24" viewBox="0 0 24 24"><path fill="#000000" d="M20.5,14.5h-3c-0.1326294,0-0.2597656,0.0526733-0.3535156,0.1464844l-1.6220703,1.6220703l-3.1484375-3.5976562c-0.0908813-0.1043701-0.2210693-0.1663208-0.359375-0.1708984c-0.1369629,0.0026245-0.2684326,0.0546875-0.3701172,0.1464844L9.7930298,14.5H7.5C7.223877,14.5,7,14.723877,7,15s0.223877,0.5,0.5,0.5H10c0.1326294,0,0.2597656-0.0526733,0.3535156-0.1464844l1.6220703-1.6220703l3.1484375,3.5976562c0.0908813,0.1043701,0.2210693,0.1663208,0.359375,0.1708984H15.5c0.1326294,0,0.2597656-0.0526733,0.3535156-0.1464844L17.7070312,15.5H20.5c0.276123,0,0.5-0.223877,0.5-0.5S20.776123,14.5,20.5,14.5z M18.5,18c-0.276123,0-0.5,0.223877-0.5,0.5V19c-0.0014038,1.1040039-0.8959961,1.9985962-2,2H6c-1.1040039-0.0014038-1.9985962-0.8959961-2-2V5c0.0014038-1.1040039,0.8959961-1.9985962,2-2h6v3.6669922C12.0016479,7.9547729,13.0452271,8.9983521,14.3330078,9H18v2.5c0,0.276123,0.223877,0.5,0.5,0.5s0.5-0.223877,0.5-0.5v-3c0-0.1326294-0.0526733-0.2597656-0.1464844-0.3535156l-6-6C12.7597656,2.0526733,12.6326294,2,12.5,2H6C4.3438721,2.0018311,3.0018311,3.3438721,3,5v14c0.0018311,1.6561279,1.3438721,2.9981689,3,3h10c1.6561279-0.0018311,2.9981689-1.3438721,3-3v-0.5C19,18.223877,18.776123,18,18.5,18z M13,3.7069702L17.2930298,8h-2.960022C13.5970459,7.9993896,13.0006104,7.4029541,13,6.6669922V3.7069702z"/></svg>