<svg xmlns="http://www.w3.org/2000/svg" width="60.595" height="57.509" viewBox="0 0 60.595 57.509"><defs><style>.a{fill:none;}.b{fill:#87c5ff;}.b,.c{fill-rule:evenodd;}.c{fill:#fff;}</style></defs><rect class="a" width="60.595" height="57.509" transform="translate(0 0)"/><path class="b" d="M7.308,2h27.7a2.354,2.354,0,0,1,2.308,2.4V25.962a2.354,2.354,0,0,1-2.308,2.4H7.308A2.354,2.354,0,0,1,5,25.962V4.4A2.354,2.354,0,0,1,7.308,2Zm3.463,7.189a1.2,1.2,0,0,0,0,2.4H24.622a1.2,1.2,0,0,0,0-2.4Zm0,4.792a1.2,1.2,0,0,0,0,2.4H17.7a1.2,1.2,0,0,0,0-2.4Z" transform="translate(7.624 4.972)"/><path class="c" d="M4.868,6.7l19.341,14.2L43.55,6.7a1.166,1.166,0,0,1,1.645.27,1.212,1.212,0,0,1,.223.7V31.691A4.753,4.753,0,0,1,40.7,36.483H7.713A4.753,4.753,0,0,1,3,31.691V7.676a1.188,1.188,0,0,1,1.178-1.2A1.165,1.165,0,0,1,4.868,6.7Z" transform="translate(4.574 11.224)"/></svg>