<svg xmlns="http://www.w3.org/2000/svg" width="15.757" height="15.721" viewBox="0 0 20.757 20.721"><defs><style>.a{fill:#3598f4;}</style></defs><path class="a" d="M22.691,6.016,18.9,2.206a1.336,1.336,0,0,0-1.885,0L3.58,15.623,2.353,20.917a1.33,1.33,0,0,0,1.291,1.614,1.381,1.381,0,0,0,.278,0L9.274,21.3,22.691,7.9A1.336,1.336,0,0,0,22.691,6.016ZM8.629,20.142,3.612,21.195l1.143-4.92L14.807,6.261l3.874,3.874ZM19.546,9.2,15.673,5.325l2.247-2.234,3.809,3.874Z" transform="translate(-2.322 -1.817)"/></svg>