<svg xmlns="http://www.w3.org/2000/svg" width="27.591" height="22.072" viewBox="0 0 27.591 22.072"><defs><style>.a{fill:#ffd731;}</style></defs><path class="a" d="M22.762,19.313H4.828a.692.692,0,0,0-.69.69v1.38a.692.692,0,0,0,.69.69H22.762a.692.692,0,0,0,.69-.69V20A.692.692,0,0,0,22.762,19.313Zm2.759-13.8a2.07,2.07,0,0,0-2.069,2.069,2.027,2.027,0,0,0,.19.854L20.52,10.312a1.378,1.378,0,0,1-1.905-.5L15.1,3.664a2.069,2.069,0,1,0-2.612,0L8.976,9.812a1.379,1.379,0,0,1-1.905.5L3.953,8.441A2.069,2.069,0,1,0,2.069,9.657,2.113,2.113,0,0,0,2.4,9.622l3.117,8.312H22.072l3.117-8.312a2.113,2.113,0,0,0,.332.034,2.069,2.069,0,0,0,0-4.139Z"/></svg>