<svg xmlns="http://www.w3.org/2000/svg" width="358.176" height="301.489" viewBox="0 0 358.176 301.489"><defs><style>.a{fill:#ecf3fe;opacity:0.8;}.b{fill:#dfe5ea;}.c{fill:#3598f4;}.d{fill:#fff;stroke:#f1f1f3;}.e{fill:#e4ecf9;}.f{fill:#87c5ff;}.g{fill:#474747;opacity:0.29;}.h{fill:#58aefd;}.i{fill:#4786d1;}</style></defs><g transform="translate(-812.249 -676.267)"><g transform="translate(812.249 681.186)"><path class="a" d="M909.806,770.525c43.775-13.1,47.959-56.427,53.157-62.685,40.852-49.181,113.475-35.511,160.546,4.132,52.2,43.967,47.377,117.964,46.31,130.607-3.712,43.984-26.916,115.579-80.29,130.164-49.1,11.711-71.674-25.6-142.184.083-16.495,6.706-31.178,4.909-37.538,4.052-49.579-6.682-98.01-62.232-97.554-114.172C812.775,803.1,866.03,783.622,909.806,770.525Z" transform="translate(-812.249 -681.186)"/><g transform="translate(82.332 45.883)"><path class="b" d="M1807.221,1841.049v113.216c0,.138-.006.275-.013.42,0,.066-.007.131-.013.2s-.007.125-.013.19c0,.026-.007.052-.007.079-.007.046-.013.085-.02.125-.006.1-.026.2-.039.3s-.033.19-.052.282a1.025,1.025,0,0,1-.033.138.294.294,0,0,1-.02.1,1.017,1.017,0,0,1-.033.138c-.02.085-.046.171-.065.249a.119.119,0,0,1-.013.046c-.046.145-.085.289-.138.426a.025.025,0,0,1-.006.02c-.026.072-.052.144-.079.21s-.052.125-.072.184a.269.269,0,0,0-.02.052c-.079.177-.157.361-.249.531-.026.052-.059.118-.092.177s-.066.112-.1.171-.059.111-.1.164c-.065.111-.137.223-.21.328-.046.072-.092.131-.131.2-.111.144-.216.288-.334.426q-.128.158-.256.3c-.085.1-.177.19-.269.282-.039.046-.085.085-.131.131a.982.982,0,0,1-.125.111c-.046.046-.1.092-.151.138-.013.013-.033.026-.046.039-.125.111-.256.216-.387.315a.18.18,0,0,0-.039.033c-.1.072-.21.151-.321.223-.04.026-.072.053-.105.072-.059.039-.118.079-.177.112a1.035,1.035,0,0,1-.144.085,1.771,1.771,0,0,1-.157.092,7.334,7.334,0,0,1-1.154.531c-.026.006-.046.02-.072.026s-.059.02-.085.026c-.092.033-.184.066-.282.092-.164.052-.328.092-.492.131l-.256.059a1.37,1.37,0,0,1-.164.026l-.2.039c-.013,0-.02,0-.026.006l-.164.02c-.026,0-.053.007-.079.007l-.144.02c-.026,0-.052.007-.085.007l-.3.02c-.144.006-.288.013-.433.013H1599.1c-.144,0-.289-.006-.433-.013l-.3-.02a2.947,2.947,0,0,1-.335-.039,1.682,1.682,0,0,1-.19-.026c-.157-.02-.315-.052-.466-.085a.954.954,0,0,1-.131-.033c-.164-.039-.328-.079-.492-.131-.1-.033-.19-.059-.282-.092a8.811,8.811,0,0,1-1.272-.558l-.3-.177c-.111-.066-.223-.138-.328-.21a8.162,8.162,0,0,1-1.725-1.568q-.177-.206-.335-.433a7.765,7.765,0,0,1-.9-1.613c-.052-.131-.1-.276-.157-.413s-.092-.282-.138-.426-.079-.289-.112-.433-.059-.269-.085-.407c-.006-.02-.006-.046-.013-.066-.02-.131-.039-.269-.052-.4a.049.049,0,0,1-.007-.033c-.013-.1-.02-.2-.026-.308-.02-.2-.026-.407-.026-.616V1841.049a8.07,8.07,0,0,1,2.951-6.251.4.4,0,0,1,.053-.039l.419-.321a8.039,8.039,0,0,1,4.677-1.489h200.02a5.526,5.526,0,0,1,.577.026.288.288,0,0,1,.1.006c.184.013.374.033.551.059l.125.02c.157.026.315.059.466.1a.793.793,0,0,1,.118.026c.19.046.374.1.557.157s.348.118.511.184a6.563,6.563,0,0,1,.689.322,3.945,3.945,0,0,1,.367.2,5.294,5.294,0,0,1,.6.394c.007-.007.007,0,.007,0l.42.321a.4.4,0,0,1,.052.039c.111.085.21.177.308.269.079.066.151.138.223.21a7.063,7.063,0,0,1,.63.7q.138.167.256.334a7.614,7.614,0,0,1,.859,1.509c.065.144.124.3.183.446,0,.007.006.013.006.02a7.429,7.429,0,0,1,.23.741c.033.125.059.243.085.367.02.1.039.19.052.289s.033.2.046.3a3.225,3.225,0,0,1,.039.354,2.382,2.382,0,0,1,.02.3C1807.214,1840.767,1807.221,1840.911,1807.221,1841.049Z" transform="translate(-1591 -1757.065)"/><path class="c" d="M1810.84,1196.4H1595.59a8.1,8.1,0,0,1,2.466-3.483.354.354,0,0,1,.053-.039l.419-.321,99.725-75.7a8.2,8.2,0,0,1,9.923,0l99.718,75.7c.007-.007.007,0,.007,0l.42.321a.364.364,0,0,1,.052.039c.111.085.21.177.308.269.079.066.151.138.223.21a7.046,7.046,0,0,1,.63.7q.138.167.256.334a7.592,7.592,0,0,1,.859,1.509c.065.144.125.3.184.446C1810.833,1196.385,1810.84,1196.391,1810.84,1196.4Z" transform="translate(-1595.105 -1115.181)"/><rect class="d" width="187.841" height="184.938" rx="28" transform="translate(12.855 14.469)"/><rect class="e" width="145.057" height="8.526" rx="4.263" transform="translate(34.247 46.865)"/><path class="e" d="M4.263,0h136.53a4.263,4.263,0,0,1,4.263,4.263v0a4.263,4.263,0,0,1-4.263,4.263H4.263A4.263,4.263,0,0,1,0,4.263v0A4.263,4.263,0,0,1,4.263,0Z" transform="translate(34.247 65.08)"/><path class="e" d="M4.263,0h136.53a4.263,4.263,0,0,1,4.263,4.263v0a4.263,4.263,0,0,1-4.263,4.263H4.263A4.263,4.263,0,0,1,0,4.263v0A4.263,4.263,0,0,1,4.263,0Z" transform="translate(34.247 83.295)"/><path class="e" d="M4.263,0h136.53a4.263,4.263,0,0,1,4.263,4.263v0a4.263,4.263,0,0,1-4.263,4.263H4.263A4.263,4.263,0,0,1,0,4.263v0A4.263,4.263,0,0,1,4.263,0Z" transform="translate(34.247 101.51)"/><path class="e" d="M4.263,0h136.53a4.263,4.263,0,0,1,4.263,4.263v0a4.263,4.263,0,0,1-4.263,4.263H4.263A4.263,4.263,0,0,1,0,4.263v0A4.263,4.263,0,0,1,4.263,0Z" transform="translate(34.247 119.725)"/><path class="f" d="M1699.113,1900.694v.006a5.287,5.287,0,0,1-1.115.918l-98.453,60.746h-.446a7.911,7.911,0,0,1-2.348-.347c-.105-.033-.21-.066-.308-.1a8.025,8.025,0,0,1-3.338-2.21c-.085-.092-.17-.19-.256-.3a7.52,7.52,0,0,1-.675-.951c-.072-.111-.131-.223-.2-.334s-.125-.236-.177-.354a8.061,8.061,0,0,1-.8-3.509V1841.049a8.07,8.07,0,0,1,2.951-6.251.4.4,0,0,1,.053-.039l.419-.321a8.039,8.039,0,0,1,4.677-1.489h1.849l8.645,5.332,79.688,49.171,3,1.849,5.719,3.529a5.291,5.291,0,0,1,1.115.918v.006A5.181,5.181,0,0,1,1699.113,1900.694Z" transform="translate(-1591 -1757.065)"/><path class="f" d="M2710.4,1841.049v113.216c0,.138-.006.275-.013.42,0,.066-.006.131-.013.2s-.007.125-.013.19c0,.026-.007.052-.007.079-.006.046-.013.085-.02.125-.006.1-.026.2-.039.3s-.033.19-.052.282c0,.013-.007.033-.007.046a.638.638,0,0,1-.026.092.294.294,0,0,1-.02.1,1.074,1.074,0,0,1-.033.138c-.02.085-.039.164-.066.249a.113.113,0,0,1-.013.046,4.352,4.352,0,0,1-.138.426.025.025,0,0,1-.006.02c-.026.072-.046.138-.079.21s-.046.118-.072.184a.447.447,0,0,0-.02.052c-.079.177-.157.361-.249.531-.026.052-.059.118-.092.177s-.066.112-.1.171-.059.111-.1.164c-.066.111-.138.223-.21.328-.046.072-.092.131-.131.2-.112.151-.223.288-.335.426q-.128.158-.256.3c-.085.1-.177.19-.269.282-.039.046-.085.085-.131.131a.99.99,0,0,1-.125.111c-.046.046-.1.092-.151.138-.013.013-.033.026-.046.039-.124.111-.256.216-.386.315a.165.165,0,0,0-.04.033c-.105.072-.21.151-.321.223-.04.026-.072.053-.1.072-.059.039-.118.079-.177.112a1.058,1.058,0,0,1-.145.085,1.771,1.771,0,0,1-.157.092,7.333,7.333,0,0,1-1.154.531c-.026.006-.052.02-.072.026s-.059.02-.085.026c-.092.033-.184.066-.282.092-.164.052-.328.092-.492.131l-.256.059a1.368,1.368,0,0,1-.164.026l-.2.039h-.019c-.059.006-.118.02-.171.026-.026,0-.052.007-.079.007l-.144.02c-.027,0-.053.007-.085.007l-.3.02c-.144.006-.288.013-.433.013h-.446l-98.453-60.746a5.1,5.1,0,0,1-1.108-.918v-.006a5.168,5.168,0,0,1,0-6.939v-.006a5.106,5.106,0,0,1,1.108-.918l5.713-3.529,3-1.849,79.7-49.171,8.644-5.332h1.85a5.515,5.515,0,0,1,.577.026.288.288,0,0,1,.1.006c.184.013.374.033.551.059l.125.02c.157.026.315.059.466.1a.783.783,0,0,1,.118.026c.19.046.374.1.558.157s.348.118.511.184a6.561,6.561,0,0,1,.688.322,3.93,3.93,0,0,1,.367.2,5.3,5.3,0,0,1,.6.394c.007-.007.007,0,.007,0l.42.321a.425.425,0,0,1,.052.039c.112.085.21.177.308.269.079.066.151.138.223.21a7.107,7.107,0,0,1,.63.7q.138.167.256.334a7.631,7.631,0,0,1,.859,1.509c.065.144.125.3.184.446,0,.007.007.013.007.02a7.591,7.591,0,0,1,.229.741c.033.125.059.243.085.367.02.1.039.19.053.289s.032.2.046.3a3.225,3.225,0,0,1,.04.354,2.359,2.359,0,0,1,.019.3C2710.4,1840.767,2710.4,1840.911,2710.4,1841.049Z" transform="translate(-2494.184 -1757.065)"/><path class="g" d="M1807.221,2380.063v1.177a8.284,8.284,0,0,1-8.1,8.455H1599.1a8.284,8.284,0,0,1-8.1-8.455v-1.177l102.88-67.688a9.455,9.455,0,0,1,10.454,0Z" transform="translate(-1591 -2184.396)"/><path class="h" d="M1807.221,2408.489v1.128a8.1,8.1,0,0,1-8.1,8.1H1599.1a8.1,8.1,0,0,1-8.1-8.1v-1.128l102.88-64.846a9.8,9.8,0,0,1,10.454,0Z" transform="translate(-1591 -2212.417)"/><rect class="c" width="67.227" height="8.526" rx="4.263" transform="translate(34.247 28.65)"/></g></g><path class="i" d="M3263.65,869.137l2.8-1.47a.863.863,0,0,1,1.253.91l-.534,3.113a.863.863,0,0,0,.248.764l2.262,2.2a.863.863,0,0,1-.479,1.473l-3.126.454a.864.864,0,0,0-.65.472l-1.4,2.832a.863.863,0,0,1-1.548,0l-1.4-2.832a.863.863,0,0,0-.65-.472l-3.125-.454a.863.863,0,0,1-.479-1.473l2.261-2.2a.863.863,0,0,0,.249-.764l-.534-3.113a.863.863,0,0,1,1.253-.91l2.8,1.47A.863.863,0,0,0,3263.65,869.137Z" transform="translate(-2185.893 -166.675)"/><g transform="translate(842.94 912.436)"><path class="i" d="M1109.985,2883.377a7.432,7.432,0,1,1,7.432-7.432A7.439,7.439,0,0,1,1109.985,2883.377Zm0-12.819a5.387,5.387,0,1,0,5.388,5.387A5.394,5.394,0,0,0,1109.985,2870.558Z" transform="translate(-1102.553 -2868.513)"/><circle class="i" cx="3.785" cy="3.785" r="3.785" transform="translate(2.079 7.432) rotate(-45)"/></g><circle class="f" cx="5.916" cy="5.916" r="5.916" transform="translate(923.611 707.78)"/><circle class="i" cx="3.416" cy="3.416" r="3.416" transform="translate(943.909 686.099)"/></g></svg>