<svg xmlns="http://www.w3.org/2000/svg" width="21.057" height="18.554" viewBox="0 0 21.057 18.554"><defs><style>.a{fill:#2382db;}</style></defs><g transform="translate(-1.935 -3.844)"><path class="a" d="M21.761,22.4H3.168A1.239,1.239,0,0,1,2.1,21.785a1.221,1.221,0,0,1,0-1.23l9.3-16.1a1.228,1.228,0,0,1,2.127,0L22.8,20.515A1.231,1.231,0,0,1,21.761,22.4ZM12.432,5.048h-.01l-9.3,16.095.046.076H21.76a.054.054,0,0,0,.051-.05c0-.007-.025-.056-.029-.063L12.506,5.048Z" transform="translate(0 0)"/><path class="a" d="M17.126,13.641v5.132a.67.67,0,0,0,1.339,0V13.641a.67.67,0,1,0-1.339,0Zm0,0" transform="translate(-5.236 -3.145)"/><path class="a" d="M17.8,24.209a.669.669,0,0,0-.67.668v.449a.67.67,0,0,0,1.339,0v-.449A.669.669,0,0,0,17.8,24.209Zm0,0" transform="translate(-5.236 -7.02)"/></g></svg>