<svg xmlns="http://www.w3.org/2000/svg" width="20.128" height="23.483" viewBox="0 0 20.128 23.483"><defs><style>.a{fill:#7b7d86;}</style></defs><path class="a" d="M19.237,4.98a3.044,3.044,0,0,1,.629,1,3.039,3.039,0,0,1,.262,1.153v15.1a1.254,1.254,0,0,1-1.258,1.258H1.258a1.212,1.212,0,0,1-.891-.367A1.217,1.217,0,0,1,0,22.225V1.258A1.212,1.212,0,0,1,.367.367,1.217,1.217,0,0,1,1.258,0H13a3.023,3.023,0,0,1,1.153.262,3.058,3.058,0,0,1,1,.629Zm-5.818-3.2V6.71h4.927a1.432,1.432,0,0,0-.288-.537l-4.1-4.1a1.432,1.432,0,0,0-.537-.288ZM18.45,21.8V8.387H13a1.254,1.254,0,0,1-1.258-1.258V1.677H1.677V21.8H18.45Zm-6.736-7.771a10,10,0,0,0,1.1.734,12.965,12.965,0,0,1,1.533-.092q1.926,0,2.32.642a.634.634,0,0,1,.026.682.038.038,0,0,1-.013.026l-.026.026v.013q-.079.5-.93.5a5.4,5.4,0,0,1-1.507-.262,9.567,9.567,0,0,1-1.7-.695,23.6,23.6,0,0,0-5.137,1.087q-2.005,3.433-3.171,3.433a.763.763,0,0,1-.367-.092l-.314-.157q-.013-.013-.079-.065a.542.542,0,0,1-.079-.472,2.845,2.845,0,0,1,.734-1.2,6.345,6.345,0,0,1,1.73-1.265.191.191,0,0,1,.3.079.075.075,0,0,1,.026.052q.682-1.114,1.4-2.582a19.991,19.991,0,0,0,1.363-3.433,10.607,10.607,0,0,1-.4-2.09A5.04,5.04,0,0,1,8.61,7.233q.144-.524.551-.524h.288a.553.553,0,0,1,.459.2,1.046,1.046,0,0,1,.118.891.284.284,0,0,1-.052.105.342.342,0,0,1,.013.105V8.4A17.154,17.154,0,0,1,9.8,10.916a6.627,6.627,0,0,0,1.913,3.119ZM4.167,19.42a5.781,5.781,0,0,0,1.8-2.07,7.467,7.467,0,0,0-1.147,1.1,4.352,4.352,0,0,0-.648.97ZM9.383,7.364a3.9,3.9,0,0,0-.026,1.73Q9.37,9,9.449,8.518q0-.039.092-.564a.3.3,0,0,1,.052-.105.038.038,0,0,1-.013-.026.1.1,0,0,1-.013-.039.754.754,0,0,0-.17-.472.038.038,0,0,1-.013.026v.026ZM7.758,16.026a19.2,19.2,0,0,1,3.721-1.061,1.979,1.979,0,0,1-.17-.125,2.354,2.354,0,0,1-.209-.177,6.936,6.936,0,0,1-1.664-2.307,17.482,17.482,0,0,1-1.087,2.582q-.393.734-.59,1.087Zm8.466-.209a3.137,3.137,0,0,0-1.835-.314,4.954,4.954,0,0,0,1.625.367,1.282,1.282,0,0,0,.236-.013q0-.013-.026-.039Z"/></svg>