<svg xmlns="http://www.w3.org/2000/svg" width="18.003" height="15.753" viewBox="0 0 18.003 15.753"><defs><style>.a{fill:#7b7d86;fill-rule:evenodd;}</style></defs><g transform="translate(-4.497 -10.123)"><path class="a" d="M13.171,10.454a1.125,1.125,0,0,0-1.593,0L4.828,17.2a1.125,1.125,0,0,0,0,1.593l6.75,6.75a1.126,1.126,0,1,0,1.593-1.593L7.216,18l5.956-5.954a1.125,1.125,0,0,0,0-1.593Z"/><path class="a" d="M22.5,18a1.125,1.125,0,0,0-1.125-1.125H6.75a1.125,1.125,0,0,0,0,2.25H21.375A1.125,1.125,0,0,0,22.5,18Z"/></g></svg>