<svg xmlns="http://www.w3.org/2000/svg" xmlns:xlink="http://www.w3.org/1999/xlink" width="61.335" height="61.335" viewBox="0 0 61.335 61.335"><defs><style>.a{fill-rule:evenodd;fill:url(#a);}.b{fill:#fff;}</style><linearGradient id="a" x1="0.5" y1="1" x2="0.5" gradientUnits="objectBoundingBox"><stop offset="0" stop-color="#25cf43"/><stop offset="1" stop-color="#61fd7d"/></linearGradient></defs><g transform="translate(0 0)"><g transform="translate(0 0)"><path class="a" d="M411.308,286.748c0,.336-.01,1.064-.03,1.627a32.287,32.287,0,0,1-.324,3.962,13.2,13.2,0,0,1-1.111,3.32,11.818,11.818,0,0,1-5.2,5.2,13.222,13.222,0,0,1-3.339,1.111,32.4,32.4,0,0,1-3.932.317c-.563.02-1.292.03-1.626.03l-30.2,0c-.336,0-1.064-.01-1.627-.03a32.292,32.292,0,0,1-3.962-.323,13.2,13.2,0,0,1-3.32-1.111,11.818,11.818,0,0,1-5.2-5.2,13.225,13.225,0,0,1-1.111-3.339,32.407,32.407,0,0,1-.317-3.932c-.02-.563-.03-1.292-.03-1.626l0-30.2c0-.336.01-1.064.03-1.627a32.315,32.315,0,0,1,.323-3.962,13.2,13.2,0,0,1,1.111-3.32,11.819,11.819,0,0,1,5.2-5.2,13.222,13.222,0,0,1,3.339-1.111,32.4,32.4,0,0,1,3.932-.317c.563-.02,1.292-.03,1.626-.03l30.2,0c.336,0,1.064.01,1.627.03a32.313,32.313,0,0,1,3.962.323,13.2,13.2,0,0,1,3.32,1.111,11.818,11.818,0,0,1,5.2,5.2,13.223,13.223,0,0,1,1.111,3.339,32.4,32.4,0,0,1,.317,3.932c.02.563.03,1.292.03,1.626Z" transform="translate(-349.978 -240.978)"/></g><path class="b" d="M3.1,32.782A21.865,21.865,0,1,1,22.047,43.729h-.009a21.853,21.853,0,0,1-10.448-2.66L0,44.108Zm9.689,4.723a18.146,18.146,0,0,0,9.249,2.532h.007A18.17,18.17,0,1,0,6.653,31.524l.432.687-1.836,6.7,6.878-1.8Zm12.824-5.458A31.449,31.449,0,0,1,22.5,30.9c-5.48-2.366-9.059-7.882-9.332-8.246S10.938,19.689,10.938,17a6.124,6.124,0,0,1,1.912-4.556,2.007,2.007,0,0,1,1.457-.683c.364,0,.729,0,1.047.019.039,0,.08,0,.123,0,.318,0,.715,0,1.107.936.455,1.093,1.548,3.782,1.684,4.055a1,1,0,0,1,.046.957,3.724,3.724,0,0,1-.546.911c-.273.319-.574.712-.819.957-.273.272-.558.568-.24,1.115A16.462,16.462,0,0,0,19.746,24.5a14.923,14.923,0,0,0,4.393,2.711c.546.273.865.228,1.184-.137s1.365-1.595,1.73-2.141.728-.456,1.229-.274,3.187,1.5,3.733,1.777.91.41,1.047.638a4.564,4.564,0,0,1-.319,2.6c-.455,1.276-2.638,2.44-3.687,2.6a8.938,8.938,0,0,1-1.326.1A6.937,6.937,0,0,1,25.615,32.047Z" transform="translate(9.285 8.273)"/></g></svg>