<svg xmlns="http://www.w3.org/2000/svg" width="35.424" height="35.424" viewBox="0 0 35.424 35.424"><defs><style>.a{fill:#7b7d86;}</style></defs><path class="a" d="M37.84,5.04H7.654A2.585,2.585,0,0,0,5.04,7.593V37.908a2.587,2.587,0,0,0,2.614,2.556H37.84a2.594,2.594,0,0,0,2.624-2.556V7.593A2.593,2.593,0,0,0,37.84,5.04ZM15.546,35.225H10.289v-16.9h5.256v16.9ZM12.917,16.009a3.046,3.046,0,1,1,3.045-3.048A3.045,3.045,0,0,1,12.917,16.009ZM35.224,35.225H29.976V27.006c0-1.961-.038-4.483-2.731-4.483-2.735,0-3.152,2.136-3.152,4.341v8.363H18.842V18.321h5.04v2.308h.072A5.523,5.523,0,0,1,28.926,17.9c5.316,0,6.3,3.5,6.3,8.054v9.273Z" transform="translate(-5.04 -5.04)"/></svg>