<svg xmlns="http://www.w3.org/2000/svg" width="35.317" height="35.318" viewBox="0 0 35.317 35.318"><defs><style>.a{fill:#7b7d86;}.b{fill:#fff;}</style></defs><g transform="translate(0 0)"><rect class="a" width="35.317" height="35.318" rx="4" transform="translate(0 0)"/><path class="b" d="M23.873,5.327A6.416,6.416,0,0,1,22.982,6.6a6.58,6.58,0,0,1-1.61,1.357q.027.213.04.4a14.486,14.486,0,0,1-1.025,5.549,14.612,14.612,0,0,1-5.815,7.226A15.289,15.289,0,0,1,5.47,22.8,10.451,10.451,0,0,1,0,20.684a10.191,10.191,0,0,0,7.292-2.1,5.024,5.024,0,0,1-4.631-3.433A3.114,3.114,0,0,0,3.7,15.2a9.656,9.656,0,0,0,1.171-.16A5.49,5.49,0,0,1,1.544,12.46a5.565,5.565,0,0,1-.559-2.448,4.676,4.676,0,0,0,2.209.665A5.707,5.707,0,0,1,1.025,7.15a6.53,6.53,0,0,1,.6-3.18A16.727,16.727,0,0,0,7.306,8.227a11.771,11.771,0,0,0,4.458.932,5.958,5.958,0,0,1,.6-3.779,5.149,5.149,0,0,1,3.074-2.235,4.537,4.537,0,0,1,4.551,1.411,8.1,8.1,0,0,0,3.167-1.171A4.805,4.805,0,0,1,20.972,6.2a13.838,13.838,0,0,0,2.9-.878Z" transform="translate(5.722 4.712)"/></g></svg>