<svg xmlns="http://www.w3.org/2000/svg" width="35.317" height="35.318" viewBox="0 0 35.317 35.318"><defs><style>.a,.c{fill:#7b7d86;}.b{fill:#fff;}.b,.c{fill-rule:evenodd;}</style></defs><g transform="translate(0 0)"><rect class="a" width="35.317" height="35.318" rx="4" transform="translate(0 0)"/><g transform="translate(7.431 6.421)"><path class="b" d="M21.452,5.516A11.2,11.2,0,0,0,2.343,13.388a11.069,11.069,0,0,0,1.494,5.569L2.25,24.727l5.932-1.549a11.22,11.22,0,0,0,5.348,1.354h0A11.181,11.181,0,0,0,24.726,13.394,11.047,11.047,0,0,0,21.452,5.516Z" transform="translate(-2.25 -2.25)"/><path class="c" d="M20.817,17.628c-.309-.154-1.828-.9-2.109-1s-.489-.154-.695.154-.8,1-.978,1.2-.36.23-.669.076a8.436,8.436,0,0,1-2.484-1.525,9.282,9.282,0,0,1-1.718-2.128c-.18-.307-.02-.474.136-.627.139-.138.309-.359.463-.538a2.073,2.073,0,0,0,.309-.513.567.567,0,0,0-.025-.538c-.076-.154-.695-1.666-.952-2.282-.251-.6-.505-.518-.695-.527s-.388-.011-.593-.011a1.138,1.138,0,0,0-.823.385A3.445,3.445,0,0,0,8.9,12.321,5.985,5.985,0,0,0,10.164,15.5a13.717,13.717,0,0,0,5.274,4.64,17.9,17.9,0,0,0,1.761.647,4.255,4.255,0,0,0,1.945.122,3.181,3.181,0,0,0,2.085-1.462,2.569,2.569,0,0,0,.18-1.461c-.076-.128-.283-.206-.593-.359Z" transform="translate(-3.94 -3.926)"/></g></g></svg>