<svg xmlns="http://www.w3.org/2000/svg" width="170" height="170" viewBox="0 0 170 170"><defs><style>.a{fill:#00146a;stroke:#f1f1f3;stroke-width:3px;}.b{fill:#4d52e6;}.c{fill:#fff;font-size:24px;font-family:Roboto-Bold, Roboto;font-weight:700;}.d{stroke:none;}.e{fill:none;}</style></defs><g transform="translate(-1152 -856)"><g class="a" transform="translate(1152 856)"><rect class="d" width="170" height="170"/><rect class="e" x="1.5" y="1.5" width="167" height="167"/></g><path class="b" d="M16.924,2.739l-5.567,6.42,5.433,25.592q.269.719.359,1.01a1.36,1.36,0,0,1,.023.651,1.275,1.275,0,0,1-.382.673l-7,8.4a1.479,1.479,0,0,1-1.144.494,1.625,1.625,0,0,1-1.19-.494l-6.96-8.4a1.585,1.585,0,0,1-.427-.965,5.31,5.31,0,0,1,.427-1.369L5.924,9.115.4,2.739A1.546,1.546,0,0,1,.109,1.1,1.263,1.263,0,0,1,1.389,0H15.981a1.2,1.2,0,0,1,1.235,1.1A1.675,1.675,0,0,1,16.924,2.739Z" transform="translate(1228.622 924.729)"/><text class="c" transform="translate(1177 948)"><tspan x="0" y="0" xml:space="preserve">Your    logo</tspan></text></g></svg>