<svg xmlns="http://www.w3.org/2000/svg" width="18.613" height="18.614" viewBox="0 0 18.613 18.614"><defs><style>.a{fill:#0a102e;}</style></defs><g transform="translate(20.612)"><path class="a" d="M.009,16.867l1.747,1.747,3.523-2.025L12.1,9.766l1.391,1.391,3.026-3.026L15.8,7.415l1.87-1.87A3.249,3.249,0,1,0,13.078.952l-1.87,1.87-.716-.716L7.465,5.131,8.857,6.522,2.034,13.345ZM16.659,4.532,14.3,6.886l-.023.022-.506.507-.283,1.716S17.366,3.824,16.659,4.532ZM9.838,7.567l1.218,1.218L4.4,15.442,1.993,16.825,1.8,16.63l1.383-2.406Z" transform="translate(-20.621 0)"/></g></svg>