<svg xmlns="http://www.w3.org/2000/svg" width="37.51" height="37.51" viewBox="0 0 37.51 37.51"><defs><style>.a{fill:#87c5ff;}</style></defs><path class="a" d="M39.772,5.04H7.808a2.738,2.738,0,0,0-2.768,2.7v32.1A2.739,2.739,0,0,0,7.808,42.55H39.772a2.747,2.747,0,0,0,2.779-2.706V7.743A2.745,2.745,0,0,0,39.772,5.04ZM16.164,37H10.6V19.1h5.566V37ZM13.381,16.655a3.226,3.226,0,1,1,3.224-3.227A3.224,3.224,0,0,1,13.381,16.655ZM37,37H31.445V28.3c0-2.077-.041-4.747-2.891-4.747-2.9,0-3.337,2.262-3.337,4.6V37H19.655V19.1h5.337v2.444h.077a5.849,5.849,0,0,1,5.265-2.891c5.629,0,6.67,3.706,6.67,8.528V37Z" transform="translate(-5.04 -5.04)"/></svg>