<svg xmlns="http://www.w3.org/2000/svg" width="38" height="37" viewBox="0 0 38 37"><defs><style>.a{fill:#87c5ff;}.b{fill:#fff;}</style></defs><g transform="translate(0.489 -0.29)"><rect class="a" width="38" height="37" rx="4" transform="translate(-0.489 0.29)"/><path class="b" d="M25.355,5.472a6.814,6.814,0,0,1-.947,1.357A6.989,6.989,0,0,1,22.7,8.27q.029.226.042.424a15.385,15.385,0,0,1-1.088,5.894,15.519,15.519,0,0,1-6.176,7.674,16.239,16.239,0,0,1-9.667,1.766A11.1,11.1,0,0,1,0,21.782a10.824,10.824,0,0,0,7.745-2.233A5.336,5.336,0,0,1,2.827,15.9a3.307,3.307,0,0,0,1.1.056,10.255,10.255,0,0,0,1.244-.17A5.831,5.831,0,0,1,1.64,13.047a5.911,5.911,0,0,1-.594-2.6,4.966,4.966,0,0,0,2.346.706,6.061,6.061,0,0,1-2.3-3.746,6.935,6.935,0,0,1,.636-3.378A17.765,17.765,0,0,0,7.759,8.552a12.5,12.5,0,0,0,4.734.99,6.327,6.327,0,0,1,.636-4.014,5.468,5.468,0,0,1,3.264-2.374,4.819,4.819,0,0,1,4.834,1.5,8.6,8.6,0,0,0,3.364-1.244,5.1,5.1,0,0,1-2.318,3,14.7,14.7,0,0,0,3.081-.933Z" transform="translate(6.077 5.192)"/></g></svg>