<svg xmlns="http://www.w3.org/2000/svg" width="38" height="37" viewBox="0 0 38 37"><defs><style>.a,.c{fill:#87c5ff;}.b{fill:#fff;}.b,.c{fill-rule:evenodd;}</style></defs><g transform="translate(0.489 -0.149)"><rect class="a" width="38" height="37" rx="4" transform="translate(-0.489 0.149)"/><g transform="translate(7.892 6.819)"><path class="b" d="M22.645,5.719a11.9,11.9,0,0,0-20.3,8.361,11.756,11.756,0,0,0,1.587,5.915L2.25,26.122l6.3-1.645a11.916,11.916,0,0,0,5.68,1.438h0A11.875,11.875,0,0,0,26.122,14.086a11.732,11.732,0,0,0-3.477-8.367Z" transform="translate(-2.25 -2.25)"/><path class="c" d="M21.556,18.141c-.328-.163-1.941-.953-2.24-1.062s-.52-.163-.738.163-.847,1.059-1.039,1.28-.382.244-.71.081a8.959,8.959,0,0,1-2.638-1.62,9.858,9.858,0,0,1-1.824-2.26c-.192-.326-.021-.5.144-.666.147-.146.328-.382.492-.572a2.2,2.2,0,0,0,.328-.545.6.6,0,0,0-.027-.572c-.081-.163-.738-1.77-1.011-2.424-.267-.637-.536-.55-.738-.56s-.412-.012-.629-.012a1.208,1.208,0,0,0-.875.408A3.659,3.659,0,0,0,8.9,12.5a6.356,6.356,0,0,0,1.339,3.377,14.569,14.569,0,0,0,5.6,4.928,19.013,19.013,0,0,0,1.87.687,4.519,4.519,0,0,0,2.065.13,3.378,3.378,0,0,0,2.214-1.552,2.728,2.728,0,0,0,.192-1.552c-.081-.136-.3-.218-.629-.382Z" transform="translate(-3.632 -3.588)"/></g></g></svg>