<svg xmlns="http://www.w3.org/2000/svg" width="192" height="108" viewBox="0 0 192 108"><defs><style>.a{fill:#3598f4;}.b{fill:none;}.c{fill:#87c5ff;}.c,.d{fill-rule:evenodd;}.d,.e{fill:#fff;}.e{font-size:16px;font-family:Roboto-Medium, Roboto;font-weight:500;}</style></defs><g transform="translate(-1430 -607)"><rect class="a" width="192" height="108" transform="translate(1430 607)"/><g transform="translate(1460.383 640)"><rect class="b" width="49.957" height="49.957" transform="translate(0 -4)"/><path class="c" d="M6.9,2H29.742a2,2,0,0,1,1.9,2.082V22.815a2,2,0,0,1-1.9,2.082H6.9A2,2,0,0,1,5,22.815V4.082A2,2,0,0,1,6.9,2ZM9.758,8.245a1.045,1.045,0,0,0,0,2.082H21.177a1.045,1.045,0,0,0,0-2.082Zm0,4.163a1.045,1.045,0,0,0,0,2.082h5.71a1.045,1.045,0,0,0,0-2.082Z" transform="translate(5.408 0.057)"/><path class="d" d="M4.54,6.675,20.485,19.013,36.431,6.675a.93.93,0,0,1,1.356.234,1.092,1.092,0,0,1,.184.609V28.38a4.032,4.032,0,0,1-3.886,4.163H6.886A4.032,4.032,0,0,1,3,28.38V7.519a1.008,1.008,0,0,1,.971-1.041A.928.928,0,0,1,4.54,6.675Z" transform="translate(3.244 4.899)"/></g><text class="e" transform="translate(1509.808 668)"><tspan x="0" y="0">Leader Box</tspan></text></g></svg>