<svg xmlns="http://www.w3.org/2000/svg" width="20.438" height="19.008" viewBox="0 0 20.438 19.008"><defs><style>.a{fill:#fff;stroke:#0a102e;stroke-width:0.4px;}</style></defs><path class="a" d="M12.016,3A5.018,5.018,0,0,0,7.008,8.007,4.906,4.906,0,0,0,8.8,11.7L7.3,14.467a2.047,2.047,0,0,0-.291-.022,2.146,2.146,0,1,0,2.146,2.146,2.133,2.133,0,0,0-.6-1.475l1.721-3.2.313-.581-.536-.358a3.572,3.572,0,1,1,5.544-2.973,3.511,3.511,0,0,1-.2,1.185l1.341.492A5,5,0,0,0,12.016,3Zm0,2.861a2.146,2.146,0,1,0,0,4.292,2.047,2.047,0,0,0,.291-.022l1.967,3.129.358.581.6-.358a3.581,3.581,0,1,1-.872,5.5l-1.073.939a5.005,5.005,0,1,0,3.733-8.338,4.829,4.829,0,0,0-1.811.492L13.58,9.46a2.133,2.133,0,0,0,.581-1.453A2.157,2.157,0,0,0,12.016,5.861Zm0,1.431a.715.715,0,1,1-.715.715A.7.7,0,0,1,12.016,7.292ZM6.181,11.651a5.008,5.008,0,1,0,3.331,9.277,4.912,4.912,0,0,0,2.325-3.621h3.174a2.146,2.146,0,1,0,0-1.431H10.585v.715A3.581,3.581,0,1,1,5.22,13.484,3.513,3.513,0,0,1,6.4,13.059Zm.827,4.225a.715.715,0,1,1-.715.715A.7.7,0,0,1,7.008,15.876Zm10.014,0a.715.715,0,1,1-.715.715A.7.7,0,0,1,17.023,15.876Z" transform="translate(-1.792 -2.8)"/></svg>