<svg xmlns="http://www.w3.org/2000/svg" width="84.601" height="84.602" viewBox="0 0 84.601 84.602"><defs><style>.a{fill:none;}.b{fill:#87c5ff;opacity:0.3;}.b,.c{fill-rule:evenodd;}.c{fill:#3598f4;}</style></defs><rect class="a" width="84.601" height="84.602" transform="translate(0 0)"/><path class="b" d="M8.525,2h42.3a3.525,3.525,0,0,1,3.525,3.525V37.251a3.525,3.525,0,0,1-3.525,3.525H8.525A3.525,3.525,0,0,1,5,37.251V5.525A3.525,3.525,0,0,1,8.525,2Zm5.288,10.575a1.763,1.763,0,0,0,0,3.525h21.15a1.763,1.763,0,0,0,0-3.525Zm0,7.05a1.763,1.763,0,0,0,0,3.525H24.388a1.763,1.763,0,0,0,0-3.525Z" transform="translate(12.625 8.257)"/><path class="c" d="M5.794,6.812,34.726,27.706,63.657,6.812a1.763,1.763,0,0,1,2.794,1.429V43.569a7.05,7.05,0,0,1-7.05,7.05H10.05A7.05,7.05,0,0,1,3,43.569V8.241A1.763,1.763,0,0,1,5.794,6.812Z" transform="translate(7.575 19.563)"/></svg>