<svg xmlns="http://www.w3.org/2000/svg" enable-background="new 0 0 24 24" viewBox="0 0 24 24"><path fill="#0A0A0A" d="M10.5,10c0-0.8284302-0.6715698-1.5-1.5-1.5S7.5,9.1715698,7.5,10s0.6715698,1.5,1.5,1.5C9.828064,11.4990845,10.4990845,10.828064,10.5,10z M8.5,10c0-0.276123,0.223877-0.5,0.5-0.5C9.2759399,9.5005493,9.4994507,9.7240601,9.5,10c0,0.276123-0.223877,0.5-0.5,0.5S8.5,10.276123,8.5,10z M15,8.5c-0.8284302,0-1.5,0.6715698-1.5,1.5s0.6715698,1.5,1.5,1.5c0.828064-0.0009155,1.4990845-0.671936,1.5-1.5C16.5,9.1715698,15.8284302,8.5,15,8.5z M15,10.5c-0.276123,0-0.5-0.223877-0.5-0.5s0.223877-0.5,0.5-0.5c0.2759399,0.0005493,0.4994507,0.2240601,0.5,0.5C15.5,10.276123,15.276123,10.5,15,10.5z M12,2C6.4771729,2,2,6.4771729,2,12s4.4771729,10,10,10c5.5201416-0.0064697,9.9935303-4.4798584,10-10C22,6.4771729,17.5228271,2,12,2z M12,21c-4.9705811,0-9-4.0294189-9-9s4.0294189-9,9-9c4.9683228,0.0054321,8.9945679,4.0316772,9,9C21,16.9705811,16.9705811,21,12,21z M15.1464844,14.6835938c-0.0147095,0.0148926-0.02948,0.0297241-0.0443726,0.0443726c-1.737793,1.7132568-4.5354004,1.6934204-6.2486572-0.0443726c-0.1943359-0.1904907-0.5054321-0.1904907-0.6998291,0c-0.1972046,0.1932983-0.2003784,0.5098267-0.0071411,0.7070312C9.164856,16.4196167,10.5522461,16.9990234,12,17c1.4477539-0.0009766,2.835083-0.5803833,3.8534546-1.609375c0.1904907-0.194397,0.1904907-0.5054321,0-0.6998291C15.6602173,14.4935913,15.343689,14.4903564,15.1464844,14.6835938z"/></svg>