<svg xmlns="http://www.w3.org/2000/svg" width="172.348" height="72.87" viewBox="0 0 172.348 72.87"><defs><style>.a{fill:#fff;}.b{fill:#87c5ff;font-size:24px;font-family:Roboto-Bold, Roboto;font-weight:700;}.c{fill:none;}.d{fill:#e0f0ff;}.d,.e{fill-rule:evenodd;}.e{fill:#3598f4;}</style></defs><g transform="translate(-25.129 -35.971)"><g transform="translate(0 -77.397)"><path class="a" d="M561.11,1038.687a1.511,1.511,0,0,1-.486-1.182l-.065-6.607q-.033-2.234-.032-5.57v-1.911a1.513,1.513,0,0,1,.453-1.166,1.561,1.561,0,0,1,1.1-.421,1.743,1.743,0,0,1,1.182.437,1.526,1.526,0,0,1,.5,1.215v.972a3.021,3.021,0,0,1,1.328-1.328,5.493,5.493,0,0,1,2.915-.81,3.616,3.616,0,0,1,1.846.389,1.489,1.489,0,0,1,.648,1.393,1.574,1.574,0,0,1-.388,1.085,1.437,1.437,0,0,1-1.134.437,6.806,6.806,0,0,0-3.757.745,4.448,4.448,0,0,0-1.02.939,1.738,1.738,0,0,0-.437,1.069l.065,4.048.032,5.084a1.511,1.511,0,0,1-.486,1.182,1.688,1.688,0,0,1-2.267,0Z" transform="translate(-373.025 -893.789)"/><path class="a" d="M332.714,1036.222a8.708,8.708,0,0,1-.7-3.493c0-.047,0-.093,0-.14a12.967,12.967,0,0,0-.866-5.32,8.532,8.532,0,0,0-3.6-3.847q-.214-.116-.434-.219a8.265,8.265,0,0,0-1.059-.409,8.782,8.782,0,0,0-6.733.746c-2.46,1.331-3.66,3.928-5.137,6.158a17.152,17.152,0,0,1-6,5.816,8.136,8.136,0,0,1-.78.38,10.732,10.732,0,0,1-2.306.649,9.8,9.8,0,0,1-2,.056,7.143,7.143,0,0,1-1.552-.425,5.578,5.578,0,0,1-3.342-4.385,5.658,5.658,0,0,1,8.691-5.544,3.613,3.613,0,0,1,.634.48,11,11,0,0,1,.946,1.063c.083.135.179.136-.306.136h-4.051a1.493,1.493,0,0,0-1.024.424,1.448,1.448,0,0,0,1.024,2.471h2.074c.478,0,.955-.016,1.432-.01q.861.011,1.722.011a2.972,2.972,0,0,0,2.147-.51c1.214-1.107.295-2.906-.487-3.973a9.542,9.542,0,0,0-4.086-3.213l-.053-.021a8.451,8.451,0,0,0-5.944-.111,8.548,8.548,0,0,0-4.241,12.647,8.9,8.9,0,0,0,8,3.839c5.87-.389,9.946-4.876,12.788-9.589.818-1.357,1.612-3,3.157-3.823a6.221,6.221,0,0,1,4.889-.373,5.417,5.417,0,0,1,1.518.857,5.853,5.853,0,0,1,.8,8.023,5.71,5.71,0,0,1-6.1,1.888,6.1,6.1,0,0,1-2.375-1.434c-.652-.6-1.266-1.618-2.3-1.26a1.449,1.449,0,0,0-.756,1.625,2.948,2.948,0,0,0,.992,1.393,8.986,8.986,0,0,0,1.559,1.261,8.509,8.509,0,0,0,7.606.8c1.138-.426,2.759-1.223,3.336-2.367a9.032,9.032,0,0,0,.72,1.778c.451.791.648,1.083,1.129,1.246a1.5,1.5,0,0,0,1.888-1.031C333.694,1037.582,333.029,1037,332.714,1036.222Zm-24.1-8.523-.137-.177C308.525,1027.59,308.575,1027.649,308.609,1027.7Z" transform="translate(-184.821 -894.217)"/><path class="a" d="M511.062,1033.888a1.3,1.3,0,0,0-1.744-.209c-.53.388-.8.826-1.644,1.44a5.316,5.316,0,0,1-2.236.963,8.291,8.291,0,0,1-1.849.072,7.217,7.217,0,0,1-1.568-.43,5.634,5.634,0,0,1-3.375-4.429,5.716,5.716,0,0,1,8.778-5.6,3.664,3.664,0,0,1,.641.486,11.06,11.06,0,0,1,.955,1.074c.084.137.181.137-.309.137h-4.092a1.509,1.509,0,0,0-1.034.428,1.462,1.462,0,0,0,1.034,2.5h2.1c.483,0,.965-.017,1.447-.01q.87.012,1.739.011c.791,0,1.852.275,2.494-.363.853-.848.167-2.195-.26-3.074a9.355,9.355,0,0,0-1.9-2.642,7.545,7.545,0,0,0-3.148-1.9l-.037-.012-.2-.062a8.443,8.443,0,0,0-4.914-.069,8.327,8.327,0,0,0-2.343,1.086,9.829,9.829,0,0,0-2.374,2.35,9.239,9.239,0,0,0-1.322,3.106,8.446,8.446,0,0,0-.036,3.447,6.323,6.323,0,0,0,.356,1.307,8.722,8.722,0,0,0,6.985,5.4,8.622,8.622,0,0,0,6.552-1.936q.207-.174.4-.36S511.941,1035.167,511.062,1033.888Zm-1.9-6.724-.138-.179C509.073,1027.053,509.123,1027.113,509.158,1027.164Z" transform="translate(-327.026 -893.811)"/><path class="a" d="M445.408,1023.932a1.342,1.342,0,0,1-.555-.975c.055.278-1.255.729-1.457.808a8.512,8.512,0,0,1-10.806-3.972,8.644,8.644,0,0,1,.387-8.617,8.451,8.451,0,0,1,1.76-1.995,8.728,8.728,0,0,1,7.02-1.791,12.1,12.1,0,0,1,2.939,1.15l-.194-5.854a1.616,1.616,0,0,1,.469-1.166,1.519,1.519,0,0,1,1.134-.486,1.6,1.6,0,0,1,1.15.469,1.5,1.5,0,0,1,.486,1.117q.227,14.768.227,19.982a1.6,1.6,0,0,1-1.619,1.619A1.612,1.612,0,0,1,445.408,1023.932Zm-2.481-3.335.066-.04a4.011,4.011,0,0,0,1.7-2q0-4.113-.065-6.542a.066.066,0,0,1-.065-.032c-.893-1.935-3.831-2.359-5.752-1.78A5.925,5.925,0,0,0,435,1015.11a5.7,5.7,0,0,0,1.049,3.977A5.516,5.516,0,0,0,442.927,1020.6Z" transform="translate(-281.547 -879.032)"/><path class="a" d="M264.48,1024.124a1.616,1.616,0,0,1-1.067-.469,1.555,1.555,0,0,1-.485-1.084,1.48,1.48,0,0,1-.032-.291q-.033-1.844-.162-8.7t-.129-11.19a1.617,1.617,0,1,1,3.234,0q0,3.267.048,6.274t.13,6.613q.081,3.607.081,5.644c1.121.021-.549.011,1.769-.032s1.877-.054,3.085-.032a1.485,1.485,0,0,1,1.132.485,1.648,1.648,0,0,1,.453,1.164,1.483,1.483,0,0,1-.485,1.132,1.646,1.646,0,0,1-1.164.453c-1.164-.021-.966,0-3.812.065A13.756,13.756,0,0,1,264.48,1024.124Z" transform="translate(-161.604 -878.848)"/></g><text class="b" transform="translate(100 95.001)"><tspan x="0" y="0">Box</tspan></text><g transform="translate(25.129 39.971)"><rect class="c" width="72.87" height="72.87" transform="translate(0 -4)"/><path class="d" d="M7.776,2H41.09a2.915,2.915,0,0,1,2.776,3.036V32.362A2.915,2.915,0,0,1,41.09,35.4H7.776A2.915,2.915,0,0,1,5,32.362V5.036A2.915,2.915,0,0,1,7.776,2Zm4.164,9.109a1.524,1.524,0,0,0,0,3.036H28.6a1.524,1.524,0,0,0,0-3.036Zm0,6.072a1.524,1.524,0,0,0,0,3.036h8.328a1.524,1.524,0,0,0,0-3.036Z" transform="translate(10.182 2.834)"/><path class="e" d="M5.247,6.765l23.259,18,23.259-18a1.357,1.357,0,0,1,1.978.342A1.593,1.593,0,0,1,54.011,8v30.43A5.881,5.881,0,0,1,48.343,44.5H8.668A5.881,5.881,0,0,1,3,38.426V8A1.47,1.47,0,0,1,4.417,6.478,1.354,1.354,0,0,1,5.247,6.765Z" transform="translate(6.108 11.952)"/></g></g></svg>