<svg xmlns="http://www.w3.org/2000/svg" xmlns:xlink="http://www.w3.org/1999/xlink" width="144.257" height="35.029" viewBox="0 0 144.257 35.029"><defs><style>.a{fill:#fff;}.b{fill:url(#a);}</style><linearGradient id="a" x1="1.033" y1="1.052" x2="-0.107" y2="-0.094" gradientUnits="objectBoundingBox"><stop offset="0.083" stop-color="#1afffc"/><stop offset="1" stop-color="#007fff"/></linearGradient></defs><g transform="translate(-262.604 -1000.775)"><path class="a" d="M561.4,1047.036a2.26,2.26,0,0,1-.726-1.767l-.1-9.879q-.049-3.341-.049-8.329V1024.2a2.262,2.262,0,0,1,.678-1.744,2.335,2.335,0,0,1,1.646-.629,2.607,2.607,0,0,1,1.768.654,2.282,2.282,0,0,1,.75,1.816v1.453a4.518,4.518,0,0,1,1.986-1.985,8.214,8.214,0,0,1,4.358-1.211,5.407,5.407,0,0,1,2.76.581,2.226,2.226,0,0,1,.969,2.082,2.353,2.353,0,0,1-.581,1.622,2.149,2.149,0,0,1-1.695.654q-4.068,0-5.617,1.114a6.652,6.652,0,0,0-1.526,1.4,2.6,2.6,0,0,0-.654,1.6l.1,6.053.048,7.6a2.26,2.26,0,0,1-.726,1.767,2.524,2.524,0,0,1-3.39,0Z" transform="translate(-168.581 -11.914)"/><path class="b" d="M351.233,1043.052a13.02,13.02,0,0,1-1.044-5.223c0-.069,0-.139,0-.208-.035-2.64-.151-5.529-1.295-7.954a12.758,12.758,0,0,0-5.384-5.752q-.32-.174-.649-.328a12.352,12.352,0,0,0-1.583-.612,13.132,13.132,0,0,0-10.068,1.115c-3.679,1.99-5.472,5.873-7.681,9.208a25.647,25.647,0,0,1-8.972,8.7,12.16,12.16,0,0,1-1.167.567,16.04,16.04,0,0,1-3.448.97,14.657,14.657,0,0,1-3,.083,10.67,10.67,0,0,1-2.321-.636,8.341,8.341,0,0,1-5-6.557,8.461,8.461,0,0,1,12.995-8.29,5.4,5.4,0,0,1,.949.719,16.442,16.442,0,0,1,1.414,1.59c.125.2.268.2-.457.2h-6.058a2.233,2.233,0,0,0-1.531.634,2.165,2.165,0,0,0,1.531,3.695h3.1c.715,0,1.427-.025,2.142-.015q1.287.017,2.575.016a4.445,4.445,0,0,0,3.211-.762c1.815-1.656.441-4.345-.728-5.94a14.269,14.269,0,0,0-6.11-4.8l-.079-.031a12.636,12.636,0,0,0-8.888-.166,12.782,12.782,0,0,0-6.342,18.91,13.314,13.314,0,0,0,11.955,5.74c8.777-.581,14.871-7.292,19.121-14.339,1.224-2.029,2.41-4.487,4.721-5.716a9.3,9.3,0,0,1,7.311-.558,8.1,8.1,0,0,1,2.27,1.281,8.752,8.752,0,0,1,1.2,12,8.538,8.538,0,0,1-9.116,2.823,9.121,9.121,0,0,1-3.552-2.144c-.974-.9-1.893-2.419-3.44-1.884a2.167,2.167,0,0,0-1.13,2.43,4.408,4.408,0,0,0,1.484,2.083,13.438,13.438,0,0,0,2.332,1.886,12.723,12.723,0,0,0,11.373,1.2c1.7-.636,4.126-1.829,4.987-3.54a13.507,13.507,0,0,0,1.076,2.658c.674,1.183.969,1.62,1.688,1.863a2.245,2.245,0,0,0,2.823-1.541C352.7,1045.085,351.705,1044.21,351.233,1043.052Zm-36.043-12.745-.2-.265C315.065,1030.144,315.139,1030.232,315.19,1030.307Z" transform="translate(-18.513 -12.255)"/><path class="a" d="M518.666,1039.844a1.936,1.936,0,0,0-2.608-.313c-.792.58-1.195,1.235-2.458,2.153a7.95,7.95,0,0,1-3.344,1.441,12.394,12.394,0,0,1-2.765.107,10.78,10.78,0,0,1-2.344-.643,8.425,8.425,0,0,1-5.047-6.622,8.546,8.546,0,0,1,13.126-8.374,5.471,5.471,0,0,1,.958.726,16.545,16.545,0,0,1,1.428,1.606c.126.2.271.2-.462.2h-6.119a2.256,2.256,0,0,0-1.546.64,2.187,2.187,0,0,0,1.546,3.733h3.133c.723,0,1.442-.025,2.163-.015q1.3.017,2.6.016c1.183,0,2.769.412,3.729-.542,1.276-1.268.25-3.282-.389-4.6a13.986,13.986,0,0,0-2.835-3.95,11.282,11.282,0,0,0-4.707-2.845l-.055-.018c-.1-.032-.195-.062-.292-.092a12.623,12.623,0,0,0-7.347-.1,12.447,12.447,0,0,0-3.5,1.624,14.7,14.7,0,0,0-3.55,3.514A13.814,13.814,0,0,0,496,1032.14a12.629,12.629,0,0,0-.054,5.154,9.457,9.457,0,0,0,.532,1.954,13.041,13.041,0,0,0,10.444,8.081,12.892,12.892,0,0,0,9.8-2.894q.309-.261.605-.538S519.98,1041.757,518.666,1039.844Zm-2.847-10.054-.207-.268C515.692,1029.625,515.767,1029.714,515.82,1029.79Z" transform="translate(-131.903 -11.932)"/><path class="a" d="M452.236,1035.272a2.007,2.007,0,0,1-.83-1.458c.082.416-1.876,1.091-2.179,1.208a12.728,12.728,0,0,1-16.157-5.939,12.926,12.926,0,0,1,.579-12.884,12.636,12.636,0,0,1,2.631-2.983,13.051,13.051,0,0,1,10.5-2.678,18.089,18.089,0,0,1,4.394,1.72l-.291-8.753a2.417,2.417,0,0,1,.7-1.743,2.271,2.271,0,0,1,1.695-.726,2.393,2.393,0,0,1,1.719.7,2.245,2.245,0,0,1,.726,1.671q.339,22.082.339,29.879a2.4,2.4,0,0,1-2.421,2.421A2.411,2.411,0,0,1,452.236,1035.272Zm-3.709-4.987.1-.06a6,6,0,0,0,2.545-2.991q0-6.149-.1-9.782a.1.1,0,0,1-.1-.048c-1.335-2.893-5.728-3.528-8.6-2.662a8.859,8.859,0,0,0-5.711,7.34,8.529,8.529,0,0,0,1.568,5.946C440.612,1030.994,445.148,1032.291,448.527,1030.285Z" transform="translate(-95.639 -0.147)"/><path class="a" d="M265.409,1035.688a2.416,2.416,0,0,1-1.6-.7,2.326,2.326,0,0,1-.725-1.62,2.214,2.214,0,0,1-.048-.435q-.049-2.757-.242-13.008t-.194-16.732a2.418,2.418,0,1,1,4.836,0q0,4.886.072,9.381t.194,9.888q.12,5.393.121,8.439c1.676.032-.821.016,2.645-.049s2.806-.08,4.612-.048a2.221,2.221,0,0,1,1.692.725,2.464,2.464,0,0,1,.677,1.741,2.218,2.218,0,0,1-.725,1.693,2.461,2.461,0,0,1-1.741.677c-1.741-.032-1.445,0-5.7.1A20.56,20.56,0,0,1,265.409,1035.688Z" transform="translate(0)"/></g></svg>