<svg xmlns="http://www.w3.org/2000/svg" width="133.663" height="56.514" viewBox="0 0 133.663 56.514"><defs><style>.a,.b,.e{fill:#fff;}.b{font-size:18px;font-family:Roboto-Bold, Roboto;font-weight:700;}.c{fill:none;}.d{fill:#87c5ff;}.d,.e{fill-rule:evenodd;}</style></defs><g transform="translate(-25.129 -35.971)"><g transform="translate(83.971 42.609)"><path class="a" d="M560.979,1034.9a1.172,1.172,0,0,1-.377-.917l-.05-5.124q-.025-1.733-.025-4.32v-1.482a1.173,1.173,0,0,1,.352-.9,1.211,1.211,0,0,1,.854-.326,1.352,1.352,0,0,1,.917.339,1.184,1.184,0,0,1,.389.942v.754a2.343,2.343,0,0,1,1.03-1.03,4.26,4.26,0,0,1,2.261-.628,2.8,2.8,0,0,1,1.431.3,1.155,1.155,0,0,1,.5,1.08,1.221,1.221,0,0,1-.3.842,1.115,1.115,0,0,1-.879.339,5.279,5.279,0,0,0-2.914.578,3.452,3.452,0,0,0-.791.728,1.349,1.349,0,0,0-.339.829l.05,3.14.025,3.943a1.172,1.172,0,0,1-.377.917,1.309,1.309,0,0,1-1.758,0Z" transform="translate(-493.441 -1017.089)"/><path class="a" d="M324.321,1033.127a6.753,6.753,0,0,1-.541-2.709c0-.036,0-.072,0-.108a10.056,10.056,0,0,0-.672-4.126,6.616,6.616,0,0,0-2.793-2.984q-.166-.09-.337-.17a6.409,6.409,0,0,0-.821-.317,6.811,6.811,0,0,0-5.222.578c-1.908,1.032-2.838,3.046-3.984,4.776a13.3,13.3,0,0,1-4.654,4.51,6.333,6.333,0,0,1-.605.294,8.326,8.326,0,0,1-1.788.5,7.614,7.614,0,0,1-1.554.043,5.547,5.547,0,0,1-1.2-.33,4.326,4.326,0,0,1-2.592-3.4,4.388,4.388,0,0,1,6.74-4.3,2.8,2.8,0,0,1,.492.373,8.519,8.519,0,0,1,.733.825c.065.1.139.105-.237.105h-3.142a1.159,1.159,0,0,0-.794.329,1.123,1.123,0,0,0,.794,1.917h1.609c.371,0,.74-.013,1.111-.007q.668.009,1.336.008a2.305,2.305,0,0,0,1.665-.4c.941-.859.229-2.254-.378-3.081a7.4,7.4,0,0,0-3.169-2.492l-.041-.016a6.554,6.554,0,0,0-4.61-.086,6.63,6.63,0,0,0-3.289,9.808,6.906,6.906,0,0,0,6.2,2.977c4.552-.3,7.713-3.782,9.917-7.437a7.181,7.181,0,0,1,2.449-2.965,4.824,4.824,0,0,1,3.792-.289,4.2,4.2,0,0,1,1.177.664,4.54,4.54,0,0,1,.622,6.222,4.428,4.428,0,0,1-4.728,1.464,4.731,4.731,0,0,1-1.842-1.112c-.505-.466-.982-1.255-1.784-.977a1.124,1.124,0,0,0-.586,1.26,2.286,2.286,0,0,0,.77,1.08,6.968,6.968,0,0,0,1.209.978,6.6,6.6,0,0,0,5.9.624,4.876,4.876,0,0,0,2.587-1.836,7,7,0,0,0,.558,1.379c.35.614.5.84.876.966a1.165,1.165,0,0,0,1.464-.8C325.081,1034.182,324.566,1033.728,324.321,1033.127Zm-18.694-6.61-.106-.138C305.561,1026.432,305.6,1026.478,305.627,1026.517Z" transform="translate(-287.954 -1017.556)"/><path class="a" d="M507.616,1031.188a1,1,0,0,0-1.353-.162c-.411.3-.62.641-1.275,1.117a4.123,4.123,0,0,1-1.734.747,6.429,6.429,0,0,1-1.434.056,5.6,5.6,0,0,1-1.216-.333,4.369,4.369,0,0,1-2.618-3.435,4.433,4.433,0,0,1,6.808-4.343,2.846,2.846,0,0,1,.5.376,8.587,8.587,0,0,1,.741.833c.065.106.141.106-.239.106h-3.174a1.17,1.17,0,0,0-.8.332,1.134,1.134,0,0,0,.8,1.936h1.625c.375,0,.748-.013,1.122-.008q.675.009,1.349.008c.613,0,1.436.214,1.934-.281.662-.658.129-1.7-.2-2.384a7.253,7.253,0,0,0-1.47-2.049,5.852,5.852,0,0,0-2.441-1.476l-.029-.009-.152-.048a6.547,6.547,0,0,0-3.811-.054,6.458,6.458,0,0,0-1.817.842,7.623,7.623,0,0,0-1.841,1.823,7.164,7.164,0,0,0-1.025,2.409,6.55,6.55,0,0,0-.028,2.673,4.9,4.9,0,0,0,.276,1.013,6.764,6.764,0,0,0,5.417,4.191,6.686,6.686,0,0,0,5.081-1.5q.16-.135.314-.279S508.3,1032.181,507.616,1031.188Zm-1.476-5.215-.107-.139C506.073,1025.888,506.112,1025.934,506.139,1025.974Z" transform="translate(-443.218 -1017.113)"/><path class="a" d="M442.314,1018.792a1.041,1.041,0,0,1-.43-.756c.043.216-.973.566-1.13.626a6.6,6.6,0,0,1-8.38-3.08,6.7,6.7,0,0,1,.3-6.683,6.554,6.554,0,0,1,1.365-1.547,6.769,6.769,0,0,1,5.444-1.389,9.382,9.382,0,0,1,2.279.892l-.151-4.54a1.254,1.254,0,0,1,.364-.9,1.178,1.178,0,0,1,.879-.377,1.241,1.241,0,0,1,.892.364,1.164,1.164,0,0,1,.377.866q.176,11.453.176,15.5a1.244,1.244,0,0,1-1.256,1.256A1.25,1.25,0,0,1,442.314,1018.792Zm-1.924-2.587.052-.031a3.111,3.111,0,0,0,1.32-1.552q0-3.189-.05-5.074a.051.051,0,0,1-.05-.025c-.693-1.5-2.971-1.83-4.461-1.381a4.6,4.6,0,0,0-2.962,3.807,4.424,4.424,0,0,0,.813,3.084A4.278,4.278,0,0,0,440.39,1016.206Z" transform="translate(-393.562 -1000.976)"/><path class="a" d="M264.059,1018.883a1.253,1.253,0,0,1-.828-.364,1.206,1.206,0,0,1-.376-.84,1.147,1.147,0,0,1-.025-.226q-.025-1.43-.125-6.747t-.1-8.678a1.254,1.254,0,1,1,2.508,0q0,2.534.038,4.866t.1,5.129q.062,2.8.063,4.377c.869.017-.426.009,1.372-.025s1.456-.042,2.392-.025a1.152,1.152,0,0,1,.878.376,1.278,1.278,0,0,1,.351.9,1.151,1.151,0,0,1-.376.878,1.277,1.277,0,0,1-.9.351c-.9-.016-.749,0-2.957.05A10.669,10.669,0,0,1,264.059,1018.883Z" transform="translate(-262.604 -1000.775)"/></g><text class="b" transform="translate(83.195 81.689)"><tspan x="0" y="0">Box</tspan></text><g transform="translate(25.129 35.971)"><rect class="c" width="56.514" height="56.514" transform="translate(0 0)"/><path class="d" d="M7.153,2H32.989a2.261,2.261,0,0,1,2.153,2.355V25.547A2.261,2.261,0,0,1,32.989,27.9H7.153A2.261,2.261,0,0,1,5,25.547V4.355A2.261,2.261,0,0,1,7.153,2Zm3.23,7.064a1.182,1.182,0,0,0,0,2.355H23.3a1.182,1.182,0,0,0,0-2.355Zm0,4.709a1.182,1.182,0,0,0,0,2.355h6.459a1.182,1.182,0,0,0,0-2.355Z" transform="translate(6.774 4.852)"/><path class="e" d="M4.742,6.7,22.781,20.658,40.819,6.7a1.052,1.052,0,0,1,1.534.265,1.235,1.235,0,0,1,.208.689v23.6a4.561,4.561,0,0,1-4.4,4.709H7.4A4.561,4.561,0,0,1,3,31.255V7.655A1.14,1.14,0,0,1,4.1,6.478,1.05,1.05,0,0,1,4.742,6.7Z" transform="translate(4.064 10.918)"/></g></g></svg>