<svg xmlns="http://www.w3.org/2000/svg" width="31.686" height="31.687" viewBox="0 0 31.686 31.687"><defs><style>.a{fill:none;}.b,.d{fill:#d8fab4;}.c,.e{fill:#6dd400;}.c{opacity:0.4;}.d,.e{fill-rule:evenodd;}</style></defs><rect class="a" width="31.686" height="31.687" transform="translate(0)"/><ellipse class="b" cx="10.562" cy="10.562" rx="10.562" ry="10.562" transform="translate(4.965 1.32)"/><path class="c" d="M17.089,11.641H10.4l3.319,8.535ZM11.859,22.681,6.538,9H20.971L15.564,22.688l-1.846-.729Z" transform="translate(1.777 2.883)"/><path class="d" d="M10,22h5.281a2.641,2.641,0,0,1-2.641,2.641h0A2.641,2.641,0,0,1,10,22Z" transform="translate(2.886 7.046)"/><path class="e" d="M9.32,21.281a1.32,1.32,0,0,1,0-2.641A1.32,1.32,0,0,1,9.32,16h7.922a1.32,1.32,0,0,1,0,2.641,1.32,1.32,0,0,1,0,2.641,1.32,1.32,0,0,1,0,2.641H9.32a1.32,1.32,0,0,1,0-2.641Z" transform="translate(2.246 5.124)"/></svg>