<svg xmlns="http://www.w3.org/2000/svg" width="18.598" height="11.348" viewBox="0 0 18.598 11.348"><defs><style>.a{fill:#fff;stroke:#0a102e;stroke-width:0.4px;}</style></defs><path class="a" d="M17.695,8.134c-1.471.1-3.569,1.553-4.631,2.03a5.876,5.876,0,0,1-2.161.693c-.642,0-.738-.46-.6-1.474.031-.227.332-2.249-1.212-2.161-.713.043-1.826.7-4.812,3.577L5.452,7.855A2.453,2.453,0,0,0,1.77,4.937L.211,5.984a.457.457,0,0,0-.139.627l.488.767a.452.452,0,0,0,.627.139l1.647-1.1a.634.634,0,0,1,.928.769L.975,14.155A.907.907,0,0,0,1.818,15.4a.9.9,0,0,0,.642-.267c1.2-1.2,4.392-4.279,6-5.559a2.947,2.947,0,0,0,.585,2.379,2.4,2.4,0,0,0,1.86.718,7.18,7.18,0,0,0,2.9-.852c.937-.42,2.811-1.777,3.929-1.868a.456.456,0,0,0,.432-.449V8.593a.45.45,0,0,0-.471-.46Z" transform="translate(0.232 -4.254)"/></svg>