<svg xmlns="http://www.w3.org/2000/svg" width="18.472" height="17.984" viewBox="0 0 18.472 17.984"><defs><style>.a{fill:none;stroke-linecap:round;stroke-linejoin:round;stroke-miterlimit:10;stroke-width:1.5px;}</style></defs><g transform="translate(1.052 0.867)"><path class="a" d="M16.367,0,10.278,4.736a3.41,3.41,0,0,1-4.188,0L0,0" transform="translate(0 6.365)"/><path class="a" d="M.7,4.909,6.089.718a3.411,3.411,0,0,1,4.187,0l5.388,4.191a1.819,1.819,0,0,1,.7,1.436v8.2a1.819,1.819,0,0,1-1.819,1.819H1.819A1.818,1.818,0,0,1,0,14.548v-8.2A1.818,1.818,0,0,1,.7,4.909Z" transform="translate(0)"/></g></svg>