<svg xmlns="http://www.w3.org/2000/svg" width="18.79" height="25.275" viewBox="0 0 18.79 25.275"><defs><style>.a{fill:#7b7d86;}</style></defs><g transform="translate(-5.627 -1.238)"><path class="a" d="M16.811,8.971a3.457,3.457,0,1,0,3.457,3.457A3.457,3.457,0,0,0,16.811,8.971Zm0,5.186a1.729,1.729,0,1,1,1.729-1.729,1.729,1.729,0,0,1-1.729,1.729Z" transform="translate(-1.79 -1.792)"/><path class="a" d="M21.665,3.988A9.4,9.4,0,0,0,7.149,15.76L13.68,25.787a1.6,1.6,0,0,0,2.681,0L22.894,15.76A9.4,9.4,0,0,0,21.665,3.988Zm-.22,10.828-6.424,9.862L8.6,14.816a7.667,7.667,0,1,1,12.848,0Z" transform="translate(0 0)"/></g></svg>