<svg xmlns="http://www.w3.org/2000/svg" xmlns:xlink="http://www.w3.org/1999/xlink" width="298.924" height="78" viewBox="0 0 298.924 78"><defs><style>.a{fill:#e0f0ff;}.b{fill:#202224;font-size:18px;font-family:Roboto-Regular, Roboto;}.c{fill:#3598f4;}.d{fill:#87c5ff;}.e{filter:url(#a);}</style><filter id="a" x="0" y="0" width="298.924" height="78" filterUnits="userSpaceOnUse"><feOffset dy="3" input="SourceAlpha"/><feGaussianBlur stdDeviation="3" result="b"/><feFlood flood-opacity="0.161"/><feComposite operator="in" in2="b"/><feComposite in="SourceGraphic"/></filter></defs><g transform="translate(-51 -983.934)"><g class="e" transform="matrix(1, 0, 0, 1, 51, 983.93)"><path class="a" d="M3.648,0H277.275c2.015,0,3.648,2.239,3.648,5V55c0,2.761-1.633,5-3.648,5H3.648C1.633,60,0,57.761,0,55V5C0,2.239,1.633,0,3.648,0Z" transform="translate(9 6)"/></g><text class="b" transform="translate(143.697 1026.934)"><tspan x="0" y="0">Move 1 Conversation</tspan></text><g transform="translate(84.127 1009.699)"><g transform="translate(0 0)"><path class="c" d="M442.017,312.353l1.8,13.582-9.647-7.045L404.647,303.8l22.838,2.091s11.634,2.826,12.264,3.4A28.313,28.313,0,0,1,442.017,312.353Z" transform="translate(-404.647 -303.805)"/><path class="d" d="M452.131,304.152l-47.483-.347,37.37,8.548Z" transform="translate(-404.647 -303.805)"/><path class="d" d="M426.754,326.017l12.442-9.994-34.548-12.217Z" transform="translate(-404.647 -303.805)"/></g></g><path class="c" d="M4,0H56a4,4,0,0,1,4,4V4a0,0,0,0,1,0,0H0A0,0,0,0,1,0,4V4A4,4,0,0,1,4,0Z" transform="translate(60 1049.934) rotate(-90)"/></g></svg>