<svg xmlns="http://www.w3.org/2000/svg" width="20.58" height="22.448" viewBox="0 0 20.58 22.448"><defs><style>.a{fill:#7b7d86;}</style></defs><path class="a" d="M23.4,19.769a9.945,9.945,0,0,1-1.733-2.023,8.722,8.722,0,0,1-.932-3.322V11.012A7.465,7.465,0,0,0,14.21,3.588V2.7a.922.922,0,1,0-1.844,0v.9a7.465,7.465,0,0,0-6.443,7.41v3.412a8.722,8.722,0,0,1-.932,3.322,9.945,9.945,0,0,1-1.706,2.023.691.691,0,0,0-.235.518v.939a.691.691,0,0,0,.691.691h19.2a.691.691,0,0,0,.691-.691v-.939A.691.691,0,0,0,23.4,19.769Zm-18.909.767a11.167,11.167,0,0,0,1.685-2.072,9.834,9.834,0,0,0,1.139-4.04V11.012a6.036,6.036,0,1,1,12.065,0v3.412a9.834,9.834,0,0,0,1.139,4.04A11.167,11.167,0,0,0,22.2,20.535Z" transform="translate(-3.05 -1.775)"/><path class="a" d="M17.171,33.575A1.844,1.844,0,0,0,18.953,32H15.32A1.844,1.844,0,0,0,17.171,33.575Z" transform="translate(-6.846 -11.127)"/></svg>