<svg xmlns="http://www.w3.org/2000/svg" width="22" height="22" viewBox="0 0 22 22"><defs><style>.a{fill:#f84a20;}.b{fill:#fff;}</style></defs><rect class="a" width="22" height="22" rx="2"/><g transform="translate(2.479 6.674)"><path class="b" d="M29.569,11.33v-1.2H24.75v8.433h1.2V14.944h3.012v-1.2H25.955V11.33Z" transform="translate(-11.799 -10.125)"/><path class="b" d="M5.864,10.125H2.25v8.433h1.2V15.546H5.864a1.2,1.2,0,0,0,1.2-1.2V11.33A1.2,1.2,0,0,0,5.864,10.125Zm0,4.216H3.455V11.33H5.864Z" transform="translate(-2.25 -10.125)"/><path class="b" d="M15.909,18.558H13.5V10.125h2.409a2.409,2.409,0,0,1,2.409,2.409v3.614A2.409,2.409,0,0,1,15.909,18.558Zm-1.2-1.2h1.2a1.2,1.2,0,0,0,1.2-1.2V12.534a1.2,1.2,0,0,0-1.2-1.2H14.7Z" transform="translate(-7.025 -10.125)"/></g></svg>