<svg xmlns="http://www.w3.org/2000/svg" width="25.796" height="26.396" viewBox="0 0 25.796 26.396"><defs><style>.a{fill:none;stroke:#fff;stroke-linecap:round;stroke-linejoin:round;stroke-width:1.6px;}</style></defs><path class="a" d="M15.789,11.661a3.708,3.708,0,1,0,3.325,3.325A3.708,3.708,0,0,0,15.789,11.661Zm8.927,3.69a8.942,8.942,0,0,1-.089,1.2l2.619,2.054a.626.626,0,0,1,.142.8l-2.478,4.287a.626.626,0,0,1-.761.266l-2.6-1.047a.934.934,0,0,0-.879.1,9.53,9.53,0,0,1-1.247.726.924.924,0,0,0-.511.7l-.39,2.774a.642.642,0,0,1-.619.531H12.947a.643.643,0,0,1-.62-.514l-.389-2.77a.931.931,0,0,0-.522-.708,9,9,0,0,1-1.243-.728.927.927,0,0,0-.875-.1L6.7,23.977a.626.626,0,0,1-.761-.265L3.46,19.424a.625.625,0,0,1,.142-.8L5.815,16.89a.93.93,0,0,0,.348-.816c-.021-.241-.034-.483-.034-.724s.012-.479.034-.715a.927.927,0,0,0-.352-.807L3.6,12.09a.626.626,0,0,1-.138-.794L5.938,7.008A.626.626,0,0,1,6.7,6.742L9.3,7.79a.934.934,0,0,0,.879-.1,9.529,9.529,0,0,1,1.247-.726.924.924,0,0,0,.511-.7l.39-2.774a.642.642,0,0,1,.62-.531H17.9a.643.643,0,0,1,.62.514l.389,2.77a.931.931,0,0,0,.522.708,9,9,0,0,1,1.243.728.927.927,0,0,0,.875.1l2.6-1.047a.626.626,0,0,1,.761.265l2.478,4.287a.625.625,0,0,1-.142.8l-2.214,1.738a.93.93,0,0,0-.35.816c.019.24.032.481.032.723Z" transform="translate(-2.527 -2.153)"/></svg>