<svg xmlns="http://www.w3.org/2000/svg" width="61.463" height="61.463" viewBox="0 0 61.463 61.463"><defs><style>.a{fill:none;}.b{fill:#87c5ff;opacity:0.996;}.b,.c{fill-rule:evenodd;}.c{fill:#fff;}</style></defs><g transform="translate(0 4)"><rect class="a" width="61.463" height="61.463" transform="translate(0 -4)"/><path class="b" d="M7.561,2H38.293a2.561,2.561,0,0,1,2.561,2.561V27.61a2.561,2.561,0,0,1-2.561,2.561H7.561A2.561,2.561,0,0,1,5,27.61V4.561A2.561,2.561,0,0,1,7.561,2ZM11.4,9.683a1.28,1.28,0,1,0,0,2.561H26.768a1.28,1.28,0,0,0,0-2.561Zm0,5.122a1.28,1.28,0,0,0,0,2.561h7.683a1.28,1.28,0,0,0,0-2.561Z" transform="translate(7.805 2.451)"/><path class="c" d="M5.03,6.72,26.049,21.9,47.067,6.72A1.28,1.28,0,0,1,49.1,7.758V33.425a5.122,5.122,0,0,1-5.122,5.122H8.122A5.122,5.122,0,0,1,3,33.425V7.758A1.28,1.28,0,0,1,5.03,6.72Z" transform="translate(4.683 9.441)"/></g></svg>