<svg xmlns="http://www.w3.org/2000/svg" width="21.754" height="21.754" viewBox="0 0 21.754 21.754"><defs><style>.a{fill:#7b7d86;}</style></defs><g transform="translate(-0.001)"><path class="a" d="M31.313,29.573H29.76V25.688A3.889,3.889,0,0,0,25.875,21.8V20.25a5.445,5.445,0,0,1,5.438,5.438Z" transform="translate(-9.559 -7.819)"/><path class="a" d="M17.789,29.573H16.235V25.688A3.889,3.889,0,0,0,12.35,21.8H7.688A3.889,3.889,0,0,0,3.8,25.688v3.885H2.25V25.688A5.445,5.445,0,0,1,7.688,20.25H12.35a5.445,5.445,0,0,1,5.438,5.438Z" transform="translate(-2.249 -7.819)"/><path class="a" d="M22.5,2.25V3.8a3.885,3.885,0,0,1,0,7.769v1.554a5.438,5.438,0,1,0,0-10.877Z" transform="translate(-8.515 -2.25)"/><path class="a" d="M11.063,3.8A3.885,3.885,0,1,1,7.179,7.688,3.885,3.885,0,0,1,11.063,3.8m0-1.554A5.438,5.438,0,1,0,16.5,7.688,5.438,5.438,0,0,0,11.063,2.25Z" transform="translate(-3.294 -2.25)"/></g></svg>