<svg xmlns="http://www.w3.org/2000/svg" width="22" height="22" viewBox="0 0 33 34">
<defs>
<style>.a{fill:#FFFFFF;}.b{fill:#FFFFFF;}.c{fill:none;}</style>
</defs><g transform="translate(0.502 -0.33)"><g transform="translate(4.709 3.777)">
<path class="a" d="M0,40.3a2.428,2.428,0,0,0,2.485,2.365H20.711A2.428,2.428,0,0,0,23.2,40.3V26.9H0Zm16.568-9.658a.609.609,0,0,1,.621-.591h2.071a.609.609,0,0,1,.621.591v1.971a.609.609,0,0,1-.621.591H17.19a.609.609,0,0,1-.621-.591Zm0,6.307a.609.609,0,0,1,.621-.591h2.071a.609.609,0,0,1,.621.591v1.971a.609.609,0,0,1-.621.591H17.19a.609.609,0,0,1-.621-.591ZM9.941,30.644a.609.609,0,0,1,.621-.591h2.071a.609.609,0,0,1,.621.591v1.971a.609.609,0,0,1-.621.591H10.562a.609.609,0,0,1-.621-.591Zm0,6.307a.609.609,0,0,1,.621-.591h2.071a.609.609,0,0,1,.621.591v1.971a.609.609,0,0,1-.621.591H10.562a.609.609,0,0,1-.621-.591ZM3.314,30.644a.609.609,0,0,1,.621-.591H6.006a.609.609,0,0,1,.621.591v1.971a.609.609,0,0,1-.621.591H3.935a.609.609,0,0,1-.621-.591Zm0,6.307a.609.609,0,0,1,.621-.591H6.006a.609.609,0,0,1,.621.591v1.971a.609.609,0,0,1-.621.591H3.935a.609.609,0,0,1-.621-.591Z" transform="translate(0 -17.438)"/><path class="b" d="M20.711,3.154H18.225V.788A.812.812,0,0,0,17.4,0H15.74a.812.812,0,0,0-.828.788V3.154H8.284V.788A.812.812,0,0,0,7.456,0H5.8a.812.812,0,0,0-.828.788V3.154H2.485A2.428,2.428,0,0,0,0,5.519V7.884H23.2V5.519A2.428,2.428,0,0,0,20.711,3.154Z" transform="translate(0 0)"/></g>
<rect class="c" width="22" height="22" transform="translate(-0.502 0.33)"/></g></svg>