<svg xmlns="http://www.w3.org/2000/svg" width="13.946" height="14.213" viewBox="0 0 13.946 14.213"><defs><style>.a{fill:#fff;}</style></defs><path class="a" d="M7.14,6.356V6.322h6.706a5.335,5.335,0,0,1,.1,1.2,6.857,6.857,0,0,1-1.885,5.021,6.634,6.634,0,0,1-4.955,1.918,6.873,6.873,0,0,1-5.021-2.069A6.827,6.827,0,0,1,0,7.356,6.858,6.858,0,0,1,2.069,2.319,6.855,6.855,0,0,1,7.106.25a6.512,6.512,0,0,1,4.8,1.9l-1.9,1.869a3.881,3.881,0,0,0-2.869-1.1A4.155,4.155,0,0,0,4.054,4.237a4.379,4.379,0,0,0-1.284,3.17A4.322,4.322,0,0,0,4.054,10.56a4.181,4.181,0,0,0,3.086,1.3,4.955,4.955,0,0,0,1.835-.317,3.266,3.266,0,0,0,1.251-.818,4.266,4.266,0,0,0,.684-.984,4.4,4.4,0,0,0,.334-.918H7.14Z" transform="translate(0 -0.25)"/></svg>