<svg xmlns="http://www.w3.org/2000/svg" width="20.552" height="9.211" viewBox="0 0 20.552 9.211"><defs><style>.a{fill:black;}</style></defs><g transform="translate(-7.367 -4.877)"><path class="a" d="M315.419,1029.844a4.68,4.68,0,0,1-.375-1.877c0-.025,0-.05,0-.075a6.969,6.969,0,0,0-.465-2.859,4.585,4.585,0,0,0-1.935-2.068c-.077-.042-.154-.081-.233-.118a4.428,4.428,0,0,0-.569-.22,4.72,4.72,0,0,0-3.619.4c-1.323.715-1.967,2.111-2.761,3.31a9.22,9.22,0,0,1-3.225,3.126,4.36,4.36,0,0,1-.419.2,5.779,5.779,0,0,1-1.239.349,5.27,5.27,0,0,1-1.077.03,3.847,3.847,0,0,1-.834-.229,3,3,0,0,1-1.8-2.357,3.041,3.041,0,0,1,4.671-2.98,1.947,1.947,0,0,1,.341.258,5.877,5.877,0,0,1,.508.572c.045.072.1.073-.164.073h-2.177a.8.8,0,0,0-.55.228.778.778,0,0,0,.55,1.328h1.115c.257,0,.513-.009.77-.005q.463.006.926.005a1.6,1.6,0,0,0,1.154-.274c.652-.6.159-1.562-.262-2.135a5.129,5.129,0,0,0-2.2-1.727l-.028-.011a4.542,4.542,0,0,0-3.195-.06,4.595,4.595,0,0,0-2.28,6.8,4.786,4.786,0,0,0,4.3,2.063c3.155-.209,5.346-2.621,6.873-5.154a4.978,4.978,0,0,1,1.7-2.055,3.344,3.344,0,0,1,2.628-.2,2.918,2.918,0,0,1,.816.46,3.146,3.146,0,0,1,.431,4.312,3.069,3.069,0,0,1-3.277,1.015,3.282,3.282,0,0,1-1.277-.771c-.35-.323-.68-.87-1.237-.677a.779.779,0,0,0-.406.873,1.586,1.586,0,0,0,.533.749,4.829,4.829,0,0,0,.838.678,4.574,4.574,0,0,0,4.088.433,3.38,3.38,0,0,0,1.793-1.272,4.85,4.85,0,0,0,.387.955c.242.425.348.582.607.67a.807.807,0,0,0,1.015-.554C315.946,1030.576,315.589,1030.261,315.419,1029.844Zm-12.956-4.581-.074-.1C302.418,1025.2,302.445,1025.236,302.463,1025.263Z" transform="translate(-287.954 -1017.556)"/></g></svg>