<svg xmlns="http://www.w3.org/2000/svg" width="18.936" height="19.387" viewBox="0 0 18.936 19.387"><defs><style>.a{fill:none;stroke:#fff;stroke-linecap:round;stroke-linejoin:round;}</style></defs><path class="a" d="M12.581,9.411a2.749,2.749,0,1,0,2.466,2.466A2.749,2.749,0,0,0,12.581,9.411Zm6.62,2.736a6.631,6.631,0,0,1-.066.893l1.942,1.523a.464.464,0,0,1,.105.591l-1.837,3.179a.464.464,0,0,1-.565.2l-1.929-.777a.692.692,0,0,0-.652.075,7.067,7.067,0,0,1-.924.538.685.685,0,0,0-.379.522l-.289,2.057a.476.476,0,0,1-.459.394H10.473a.477.477,0,0,1-.459-.381L9.726,18.9a.69.69,0,0,0-.387-.525,6.672,6.672,0,0,1-.922-.54.687.687,0,0,0-.649-.073l-1.928.777a.464.464,0,0,1-.565-.2L3.438,15.167a.464.464,0,0,1,.105-.591l1.642-1.289a.69.69,0,0,0,.258-.6c-.015-.179-.025-.358-.025-.537s.009-.355.025-.53a.687.687,0,0,0-.261-.6L3.541,9.728a.464.464,0,0,1-.1-.589L5.276,5.96a.464.464,0,0,1,.565-.2l1.929.777a.692.692,0,0,0,.652-.075,7.066,7.066,0,0,1,.925-.538A.685.685,0,0,0,9.725,5.4l.289-2.057a.476.476,0,0,1,.459-.394h3.675a.477.477,0,0,1,.459.381L14.9,5.388a.69.69,0,0,0,.387.525,6.672,6.672,0,0,1,.922.54.687.687,0,0,0,.649.073l1.928-.777a.464.464,0,0,1,.565.2l1.837,3.179a.464.464,0,0,1-.105.591l-1.642,1.289a.69.69,0,0,0-.26.6c.014.178.024.357.024.536Z" transform="translate(-2.843 -2.453)"/></svg>